<svg width="58" height="78" viewBox="0 0 58 78" fill="none" xmlns="http://www.w3.org/2000/svg">
<path d="M55.9269 0.441843C55.3014 0.113676 54.5991 -0.0364766 53.8954 0.00749954C53.1916 0.0514756 52.5131 0.287917 51.9325 0.691453L1.66421 35.7933C1.15055 36.1522 0.730795 36.6314 0.440875 37.1897C0.150954 37.7481 -0.000486805 38.369 -0.000486805 38.9993C-0.000486805 39.6296 0.150954 40.2505 0.440875 40.8088C0.730795 41.3671 1.15055 41.8463 1.66421 42.2052L51.9325 77.3071C52.5126 77.7119 53.1915 77.949 53.8956 77.9927C54.5998 78.0363 55.3023 77.8848 55.9272 77.5546C56.5521 77.2244 57.0755 76.728 57.4408 76.1193C57.8061 75.5106 57.9993 74.8127 57.9995 74.1011L57.9995 3.89742C57.9996 3.18549 57.8065 2.4871 57.4412 1.87797C57.0758 1.26883 56.5522 0.77218 55.9269 0.441843Z" fill="#42B4CA"/>
</svg>
