<svg width="24" height="23" viewBox="0 0 24 23" fill="none" xmlns="http://www.w3.org/2000/svg">
<path d="M0.810547 2.6418C0.810547 2.00182 1.06478 1.38806 1.51731 0.935523C1.96984 0.48299 2.58361 0.22876 3.22359 0.22876H8.04966C8.68964 0.22876 9.30341 0.48299 9.75594 0.935523C10.2085 1.38806 10.4627 2.00182 10.4627 2.6418V7.46788C10.4627 8.10786 10.2085 8.72162 9.75594 9.17415C9.30341 9.62669 8.68964 9.88092 8.04966 9.88092H3.22359C2.58361 9.88092 1.96984 9.62669 1.51731 9.17415C1.06478 8.72162 0.810547 8.10786 0.810547 7.46788V2.6418ZM13.6801 2.6418C13.6801 2.00182 13.9343 1.38806 14.3869 0.935523C14.8394 0.48299 15.4532 0.22876 16.0931 0.22876H20.9192C21.5592 0.22876 22.173 0.48299 22.6255 0.935523C23.078 1.38806 23.3322 2.00182 23.3322 2.6418V7.46788C23.3322 8.10786 23.078 8.72162 22.6255 9.17415C22.173 9.62669 21.5592 9.88092 20.9192 9.88092H16.0931C15.4532 9.88092 14.8394 9.62669 14.3869 9.17415C13.9343 8.72162 13.6801 8.10786 13.6801 7.46788V2.6418ZM0.810547 15.5113C0.810547 14.8714 1.06478 14.2576 1.51731 13.8051C1.96984 13.3525 2.58361 13.0983 3.22359 13.0983H8.04966C8.68964 13.0983 9.30341 13.3525 9.75594 13.8051C10.2085 14.2576 10.4627 14.8714 10.4627 15.5113V20.3374C10.4627 20.9774 10.2085 21.5912 9.75594 22.0437C9.30341 22.4962 8.68964 22.7505 8.04966 22.7505H3.22359C2.58361 22.7505 1.96984 22.4962 1.51731 22.0437C1.06478 21.5912 0.810547 20.9774 0.810547 20.3374V15.5113ZM13.6801 15.5113C13.6801 14.8714 13.9343 14.2576 14.3869 13.8051C14.8394 13.3525 15.4532 13.0983 16.0931 13.0983H20.9192C21.5592 13.0983 22.173 13.3525 22.6255 13.8051C23.078 14.2576 23.3322 14.8714 23.3322 15.5113V20.3374C23.3322 20.9774 23.078 21.5912 22.6255 22.0437C22.173 22.4962 21.5592 22.7505 20.9192 22.7505H16.0931C15.4532 22.7505 14.8394 22.4962 14.3869 22.0437C13.9343 21.5912 13.6801 20.9774 13.6801 20.3374V15.5113Z" fill="white"/>
</svg>
