<svg width="58" height="78" viewBox="0 0 58 78" fill="none" xmlns="http://www.w3.org/2000/svg">
<path d="M2.0726 77.5582C2.69811 77.8863 3.40042 78.0365 4.10415 77.9925C4.80787 77.9485 5.48643 77.7121 6.067 77.3085L56.3353 42.2067C56.849 41.8478 57.2687 41.3686 57.5586 40.8103C57.8486 40.2519 58 39.631 58 39.0007C58 38.3704 57.8486 37.7495 57.5586 37.1912C57.2687 36.6329 56.849 36.1537 56.3353 35.7948L6.067 0.692921C5.48688 0.288051 4.808 0.0509669 4.10388 0.00733927C3.39976 -0.0362884 2.69722 0.115203 2.07233 0.445411C1.44744 0.775619 0.92402 1.27196 0.55874 1.88069C0.193459 2.48942 0.00023813 3.18734 5.25231e-08 3.89889V74.1026C-0.000116264 74.8145 0.192965 75.5129 0.558316 76.122C0.923666 76.7312 1.44735 77.2278 2.0726 77.5582Z" fill="#42B4CA"/>
</svg>
