<svg width="24" height="24" viewBox="0 0 24 24" fill="none" xmlns="http://www.w3.org/2000/svg">
<path d="M9.71776 0.00463868C11.4661 0.00456833 13.1796 0.493118 14.6649 1.41516C16.1503 2.33719 17.3484 3.65601 18.124 5.22279C18.8996 6.78957 19.2219 8.54193 19.0544 10.2821C18.8869 12.0223 18.2364 13.6811 17.1763 15.0712L23.1078 21.005C23.3321 21.2301 23.4623 21.5321 23.472 21.8496C23.4817 22.1672 23.3701 22.4766 23.16 22.7149C22.9499 22.9532 22.6569 23.1026 22.3406 23.1327C22.0243 23.1628 21.7084 23.0714 21.457 22.8771L21.3395 22.7733L15.4054 16.842C14.2211 17.745 12.8388 18.353 11.3728 18.6157C9.90688 18.8784 8.39943 18.7883 6.97523 18.3528C5.55103 17.9172 4.25102 17.1488 3.18277 16.1111C2.11453 15.0734 1.30876 13.7962 0.832139 12.3853C0.355521 10.9743 0.221757 9.47016 0.441915 7.99726C0.662074 6.52435 1.22982 5.12504 2.09819 3.91512C2.96655 2.7052 4.11057 1.71946 5.43556 1.03945C6.76056 0.359437 8.22845 0.00471727 9.71776 0.00463868ZM9.71776 2.50573C7.89355 2.50573 6.14404 3.23037 4.85413 4.52025C3.56421 5.81012 2.83954 7.55956 2.83954 9.38372C2.83954 11.2079 3.56421 12.9573 4.85413 14.2472C6.14404 15.5371 7.89355 16.2617 9.71776 16.2617C11.542 16.2617 13.2915 15.5371 14.5814 14.2472C15.8713 12.9573 16.596 11.2079 16.596 9.38372C16.596 7.55956 15.8713 5.81012 14.5814 4.52025C13.2915 3.23037 11.542 2.50573 9.71776 2.50573Z" fill="white"/>
</svg>
